<svg width="24" height="24" viewBox="0 0 24 24" fill="none" xmlns="http://www.w3.org/2000/svg">
<path d="M3 7.5V22.5C3 23.325 3.675 24 4.5 24H18C18.825 24 19.5 23.325 19.5 22.5V7.5H3ZM7.5 21H6V10.5H7.5V21ZM10.5 21H9V10.5H10.5V21ZM13.5 21H12V10.5H13.5V21ZM16.5 21H15V10.5H16.5V21ZM19.875 3H15V1.125C14.9988 0.826996 14.8799 0.541536 14.6692 0.330814C14.4585 0.120092 14.173 0.00118492 13.875 0L8.625 0C8.327 0.00118492 8.04154 0.120092 7.83081 0.330814C7.62009 0.541536 7.50118 0.826996 7.5 1.125V3H2.625C2.32663 3 2.04048 3.11853 1.8295 3.3295C1.61853 3.54048 1.5 3.82663 1.5 4.125V6H21V4.125C21 3.82663 20.8815 3.54048 20.6705 3.3295C20.4595 3.11853 20.1734 3 19.875 3ZM13.5 3H9V1.5195H13.5V3Z" fill="#22C55E"/>
</svg>
